<svg xmlns="http://www.w3.org/2000/svg" version="1.1" xmlns:xlink="http://www.w3.org/1999/xlink" xmlns:svgjs="http://svgjs.com/svgjs" width="512" height="512" x="0" y="0" viewBox="0 0 682.667 682.667" style="enable-background:new 0 0 512 512" xml:space="preserve"><g><defs><clipPath id="a" clipPathUnits="userSpaceOnUse"><path d="M0 512h512V0H0Z" fill="#000000" data-original="#000000"></path></clipPath></defs><g clip-path="url(#a)" transform="matrix(1.33333 0 0 -1.33333 0 682.667)"><path d="M0 0h-116.543v104.542c0 6.629 5.373 12.002 12.001 12.002h92.541c6.628 0 12.001-5.373 12.001-12.002Z" style="fill-opacity:1;fill-rule:nonzero;stroke:none" transform="translate(314.272 395.456)" fill="#C9E2E7" data-original="#c9e2e7"></path><path d="M0 0h-40.855c6.627 0 12.001-5.373 12.001-12.002v-104.542h40.855v104.542C12.001-5.373 6.628 0 0 0" style="fill-opacity:1;fill-rule:nonzero;stroke:none" transform="translate(302.27 512)" fill="#A8D0D5" data-original="#a8d0d5"></path><path d="M0 0h-217.33c-13.073 0-23.671 10.598-23.671 23.672v414.666c0 13.073 10.598 23.671 23.671 23.671H0c13.073 0 23.671-10.598 23.671-23.671V23.672C23.671 10.598 13.073 0 0 0" style="fill-opacity:1;fill-rule:nonzero;stroke:none" transform="translate(364.665)" fill="#3C5959" data-original="#3c5959"></path><path d="M0 0h-40.856c13.074 0 23.671-10.598 23.671-23.671v-414.667c0-13.073-10.597-23.671-23.671-23.671H0c13.073 0 23.671 10.598 23.671 23.671v414.667C23.671-10.598 13.073 0 0 0" style="fill-opacity:1;fill-rule:nonzero;stroke:none" transform="translate(364.665 462.009)" fill="#394949" data-original="#394949"></path><path d="M0 0c0 13.073 10.598 23.671 23.671 23.671h217.33c13.073 0 23.671-10.598 23.671-23.671v-92.207H0Z" style="fill-opacity:1;fill-rule:nonzero;stroke:none" transform="translate(123.664 438.338)" fill="#89C627" data-original="#89c627"></path><path d="M0 0v92.207c0 13.073-10.598 23.671-23.671 23.671H-64.527c13.074 0 23.672-10.598 23.672-23.671V0z" style="fill-opacity:1;fill-rule:nonzero;stroke:none" transform="translate(388.336 346.13)" fill="#7DB723" data-original="#7db723"></path><path d="M0 0c-7.609 6.419-8.575 17.793-2.155 25.402L60.9 100.149H.427c-15.299 0-23.654 17.945-13.78 29.651l88.068 104.397c6.419 7.608 17.793 8.574 25.402 2.155 7.611-6.419 8.575-17.792 2.155-25.403l-63.054-74.746H99.69c15.299 0 23.654-17.944 13.78-29.65L25.402 2.155C18.983-5.454 7.609-6.419 0 0" style="fill-opacity:1;fill-rule:nonzero;stroke:none" transform="translate(205.941 54.972)" fill="#FCDD2E" data-original="#fcdd2e"></path><path d="M0 0h-14.147v14.148a7.5 7.5 0 0 1-7.5 7.5 7.499 7.499 0 0 1-7.5-7.5V0h-14.148a7.499 7.499 0 0 1-7.5-7.5c0-4.143 3.357-7.5 7.5-7.5h14.148v-14.147c0-4.143 3.357-7.5 7.5-7.5a7.5 7.5 0 0 1 7.5 7.5V-15H0c4.143 0 7.5 3.357 7.5 7.5S4.143 0 0 0" style="fill-opacity:1;fill-rule:nonzero;stroke:none" transform="translate(277.647 413.636)" fill="#E8F3FF" data-original="#e8f3ff"></path></g></g></svg>